# xmcd
#
# Track frame offsets: 
#        150
#        16829
#        32149
#        43919
#        59526
#        70509
#        85005
#        100661
#        113038
#        125122
#        138090
#        154630
#        165634
#        176150
#        191584
#        202090
#        214004
#        228286
#        240622
#        250868
#        266926
#        279106
#        291649
#        303734
#
# Disc length: 4195 seconds
#
# Revision: 4
# Processed by: cddbd v1.5.2PL0 Copyright (c) Steve Scherf et al.
# Submitted via: ExactAudioCopyFreeDBPlugin 1.0
#
DISCID=5e106118
DTITLE=Brook Benton - Brook Benton:  Eight Classic Albums [Real Gone M
DTITLE=usix box set]
DYEAR=2014
DGENRE=Rhythm and Blues
TTITLE0=The Nearness of You
TTITLE1=I Can't Begin to Tell You
TTITLE2=You Tell Me Your Dream, I'll Tell You Mine
TTITLE3=I'm in the Mood for Love
TTITLE4=But Beautiful
TTITLE5=When I Fall in Love
TTITLE6=Hold Me, Thrill Me, Kiss Me
TTITLE7=I'll String Along with You
TTITLE8=The More I See You
TTITLE9=Love Me or Leave Me
TTITLE10=I Could Have Told You
TTITLE11=It's Just a Matter of Time
TTITLE12=People Will Say We're in Love
TTITLE13=Because of You
TTITLE14=More Than You Know
TTITLE15=Blue Skies
TTITLE16=Time After Time
TTITLE17=A Lovely Way to Spend an Evening
TTITLE18=Endlessly
TTITLE19=The Things I Love
TTITLE20=(It's No) Sin
TTITLE21=Around the World
TTITLE22=May I Never Love Again
TTITLE23=You'll Never Know
EXTD=
EXTT0=
EXTT1=
EXTT2=
EXTT3=
EXTT4=
EXTT5=
EXTT6=
EXTT7=
EXTT8=
EXTT9=
EXTT10=
EXTT11=
EXTT12=
EXTT13=
EXTT14=
EXTT15=
EXTT16=
EXTT17=
EXTT18=
EXTT19=
EXTT20=
EXTT21=
EXTT22=
EXTT23=
PLAYORDER=
